<?xml version="1.0" encoding="UTF-8"?>
<svg xmlns="http://www.w3.org/2000/svg" xmlns:xlink="http://www.w3.org/1999/xlink" width="250pt" height="250pt" viewBox="0 -50 250 250" version="1.1">
<defs>
<linearGradient id="linear0" gradientUnits="userSpaceOnUse" x1="600" y1="754.02" x2="600" y2="145.98" gradientTransform="matrix(0.281532,0,0,0.2816,-46.019144,-41.107968)">
<stop offset="0" style="stop-color:rgb(50.196078%,50.196078%,50.196078%);stop-opacity:0.25098;"/>
<stop offset="0.54" style="stop-color:rgb(50.196078%,50.196078%,50.196078%);stop-opacity:0.121569;"/>
<stop offset="1" style="stop-color:rgb(50.196078%,50.196078%,50.196078%);stop-opacity:0.101961;"/>
</linearGradient>
<linearGradient id="linear1" gradientUnits="userSpaceOnUse" x1="437.25" y1="574.51" x2="437.25" y2="36.62" gradientTransform="matrix(0.281532,0,0,0.2816,0,0)">
<stop offset="0" style="stop-color:rgb(50.196078%,50.196078%,50.196078%);stop-opacity:0.25098;"/>
<stop offset="0.54" style="stop-color:rgb(50.196078%,50.196078%,50.196078%);stop-opacity:0.121569;"/>
<stop offset="1" style="stop-color:rgb(50.196078%,50.196078%,50.196078%);stop-opacity:0.101961;"/>
</linearGradient>
<clipPath id="clip1">
  <path d="M 14 54 L 231 54 L 231 158 L 14 158 Z M 14 54 "/>
</clipPath>
<clipPath id="clip2">
  <path d="M 17.464844 13.796875 L 228.503906 13.796875 C 229.882812 13.796875 230.996094 14.914062 230.996094 16.289062 L 230.996094 155.023438 C 230.996094 156.398438 229.882812 157.515625 228.503906 157.515625 L 17.464844 157.515625 C 16.089844 157.515625 14.976562 156.398438 14.976562 155.023438 L 14.976562 16.289062 C 14.976562 14.914062 16.089844 13.796875 17.464844 13.796875 Z M 17.464844 13.796875 "/>
</clipPath>
</defs>
<g id="surface1">
<path style=" stroke:none;fill-rule:nonzero;fill:url(#linear0);" d="M 245.648438 165.828125 C 245.652344 167.253906 245.09375 168.621094 244.089844 169.632812 C 243.085938 170.644531 241.722656 171.214844 240.296875 171.21875 L 5.5 171.21875 C 4.074219 171.214844 2.710938 170.644531 1.707031 169.628906 C 0.703125 168.617188 0.144531 167.25 0.152344 165.824219 L 0.152344 5.394531 C 0.144531 3.972656 0.707031 2.601562 1.710938 1.589844 C 2.714844 0.582031 4.078125 0.0117188 5.5 0.00390625 L 240.296875 0.00390625 C 241.722656 0.0117188 243.089844 0.582031 244.09375 1.59375 C 245.09375 2.605469 245.65625 3.976562 245.648438 5.402344 "/>
<path style=" stroke:none;fill-rule:nonzero;fill:rgb(100%,100%,100%);fill-opacity:1;" d="M 242.886719 163.203125 C 242.886719 166.085938 240.550781 168.417969 237.671875 168.417969 L 8.296875 168.417969 C 5.417969 168.417969 3.082031 166.085938 3.082031 163.203125 L 3.082031 8.109375 C 3.082031 5.230469 5.417969 2.894531 8.296875 2.894531 L 237.671875 2.894531 C 240.550781 2.894531 242.886719 5.230469 242.886719 8.109375 "/>
<path style=" stroke:none;fill-rule:nonzero;fill:url(#linear1);" d="M 14.734375 10.3125 L 231.464844 10.3125 C 232.839844 10.3125 233.957031 11.429688 233.957031 12.804688 L 233.957031 159.289062 C 233.957031 160.667969 232.839844 161.78125 231.464844 161.78125 L 14.734375 161.78125 C 13.359375 161.78125 12.242188 160.667969 12.242188 159.289062 L 12.242188 12.804688 C 12.242188 11.429688 13.359375 10.3125 14.734375 10.3125 Z M 14.734375 10.3125 "/>
<path style=" stroke:none;fill-rule:nonzero;fill:rgb(100%,100%,100%);fill-opacity:1;" d="M 17.464844 13.796875 L 228.503906 13.796875 C 229.882812 13.796875 230.996094 14.914062 230.996094 16.289062 L 230.996094 155.023438 C 230.996094 156.398438 229.882812 157.515625 228.503906 157.515625 L 17.464844 157.515625 C 16.089844 157.515625 14.976562 156.398438 14.976562 155.023438 L 14.976562 16.289062 C 14.976562 14.914062 16.089844 13.796875 17.464844 13.796875 Z M 17.464844 13.796875 "/>
<g clip-path="url(#clip1)" clip-rule="nonzero">
<g clip-path="url(#clip2)" clip-rule="nonzero">
<path style=" stroke:none;fill-rule:nonzero;fill:rgb(98.039216%,44.705882%,40.784314%);fill-opacity:1;" d="M 2.96875 156.199219 L 63.273438 87.074219 C 65.375 84.664062 68.347656 83.195312 71.539062 82.984375 C 74.726562 82.777344 77.867188 83.847656 80.261719 85.964844 L 97.152344 100.867188 C 101.609375 104.800781 108.273438 104.882812 112.820312 101.058594 L 164.429688 57.65625 C 169.371094 53.507812 176.707031 54.003906 181.042969 58.785156 L 244.386719 128.519531 C 246.148438 130.457031 247.226562 132.921875 247.457031 135.53125 L 249.902344 163.039062 C 250.199219 166.398438 249.074219 169.726562 246.800781 172.210938 C 244.527344 174.699219 241.3125 176.113281 237.941406 176.113281 L 12.007812 176.113281 C 5.515625 176.113281 0.199219 170.953125 0.00390625 164.460938 C -0.0859375 161.429688 0.972656 158.480469 2.96875 156.199219 Z M 2.96875 156.199219 "/>
</g>
</g>
<path style=" stroke:none;fill-rule:nonzero;fill:rgb(100%,32.156863%,32.156863%);fill-opacity:1;" d="M 54.363281 36.839844 C 54.363281 44.230469 48.375 50.222656 40.984375 50.222656 C 33.597656 50.222656 27.605469 44.230469 27.605469 36.839844 C 27.605469 29.453125 33.597656 23.460938 40.984375 23.460938 C 48.375 23.460938 54.363281 29.453125 54.363281 36.839844 Z M 54.363281 36.839844 "/>
</g>
</svg>
